<svg xmlns="http://www.w3.org/2000/svg" version="1.0" preserveAspectRatio="xMidYMid meet" viewBox="40 190.12 445 104.74">
<metadata>
Created by potrace 1.16, written by Peter Selinger 2001-2019
</metadata>
<g transform="translate(0.000000,500.000000) scale(0.100000,-0.100000)" fill="#000000" stroke="none">
<path d="M1334 3084 c-58 -21 -120 -77 -151 -138 -23 -44 -27 -63 -27 -136 0 -73 4 -92 27 -136 63 -123 208 -183 349 -144 82 23 170 108 193 188 6 21 4 22 -58 22 -62 0 -66 -2 -90 -34 -78 -102 -237 -81 -282 38 -32 83 1 177 75 218 68 38 195 1 215 -62 6 -17 15 -20 75 -20 l70 0 -10 25 c-33 87 -104 157 -183 180 -63 19 -149 18 -203 -1z"/>
<path d="M400 2810 l0 -280 65 0 65 0 2 167 3 167 120 -167 120 -167 52 0 53 0 0 280 0 280 -60 0 -60 0 0 -167 c0 -134 -3 -165 -12 -155 -7 7 -63 81 -124 165 l-110 152 -57 3 -57 3 0 -281z"/>
<path d="M1880 2855 l0 -65 1485 0 1485 0 0 65 0 65 -1485 0 -1485 0 0 -65z"/>
<path d="M4407 2616 c-71 -26 -109 -78 -109 -151 0 -88 53 -136 191 -174 81 -22 111 -43 111 -75 0 -31 -13 -45 -49 -56 -61 -17 -131 15 -131 60 0 18 -7 20 -65 20 -59 0 -65 -2 -65 -20 0 -63 69 -141 142 -161 56 -15 164 -7 211 16 75 35 108 132 72 208 -22 48 -51 65 -175 107 -91 30 -106 39 -114 62 -12 35 11 63 58 72 45 9 83 -8 104 -44 16 -28 21 -30 75 -30 51 0 57 2 57 20 0 32 -37 96 -67 118 -62 43 -169 55 -246 28z"/>
<path d="M1840 2340 l0 -280 65 0 65 0 2 169 3 169 120 -169 120 -168 58 -1 57 0 0 280 0 280 -65 0 -65 0 -2 -167 -3 -167 -120 167 -120 166 -57 1 -58 0 0 -280z"/>
<path d="M2620 2340 l0 -280 190 0 190 0 0 55 0 55 -125 0 -125 0 0 60 0 60 110 0 110 0 0 55 0 55 -110 0 -110 0 0 55 0 55 120 0 120 0 0 55 0 55 -185 0 -185 0 0 -280z"/>
<path d="M3220 2614 c0 -5 39 -131 87 -281 l88 -274 64 3 64 3 61 172 c33 95 63 169 67 165 4 -4 33 -83 65 -175 l59 -168 64 3 63 3 89 275 c49 151 89 276 89 278 0 1 -31 2 -70 2 -49 0 -70 -4 -70 -12 0 -7 -24 -87 -53 -178 l-53 -165 -31 85 c-16 47 -45 127 -63 178 l-33 93 -61 -3 -61 -3 -61 -174 -61 -174 -47 149 c-26 82 -51 160 -55 174 -7 23 -13 25 -74 28 -37 2 -67 0 -67 -4z"/>
<path d="M500 2160 l0 -70 620 0 621 0 -3 68 -3 67 -617 3 -618 2 0 -70z"/>
</g>
</svg>